<svg xmlns="http://www.w3.org/2000/svg" xmlns:xlink="http://www.w3.org/1999/xlink">
  <defs>
    <symbol id="plus" viewBox="0 0 20 20">
      <path
        d="M18.9583 10.625H12.7083V4.37504C12.7083 4.09877 12.5986 3.83382 12.4032 3.63847C12.2079 3.44312 11.9429 3.33337 11.6667 3.33337C11.3904 3.33337 11.1255 3.44312 10.9301 3.63847C10.7348 3.83382 10.625 4.09877 10.625 4.37504V10.625H4.37501C4.09874 10.625 3.83379 10.7348 3.63844 10.9301C3.44309 11.1255 3.33334 11.3904 3.33334 11.6667C3.33334 11.943 3.44309 12.2079 3.63844 12.4033C3.83379 12.5986 4.09874 12.7084 4.37501 12.7084H10.625V18.9584C10.625 19.2346 10.7348 19.4996 10.9301 19.6949C11.1255 19.8903 11.3904 20 11.6667 20C11.9429 20 12.2079 19.8903 12.4032 19.6949C12.5986 19.4996 12.7083 19.2346 12.7083 18.9584V12.7084H18.9583C19.2346 12.7084 19.4996 12.5986 19.6949 12.4033C19.8903 12.2079 20 11.943 20 11.6667C20 11.3904 19.8903 11.1255 19.6949 10.9301C19.4996 10.7348 19.2346 10.625 18.9583 10.625Z" />
    </symbol>

    <symbol id="chevron-up" viewBox="0 0 20 20">
      <path
        d="M6.175 12.8417L10 9.02502L13.825 12.8417L15 11.6667L10 6.66669L5 11.6667L6.175 12.8417Z" />
    </symbol>

    <symbol id="chevron-down" viewBox="0 0 20 20">
      <path
        d="M6.175 7.15002L10 10.975L13.825 7.15002L15 8.33336L10 13.3334L5 8.33336L6.175 7.15002Z" />
    </symbol>
    <symbol id="chevron-right" viewBox="0 0 20 20">
      <path
        d="M7.15833 13.8167L10.975 10L7.15833 6.175L8.33333 5L13.3333 10L8.33333 15L7.15833 13.8167Z" />
    </symbol>
    <symbol id="activate" viewBox="0 0 20 20">
      <path
        d="M17.9167 7.49996H13.75L15.3 5.94996C14.0833 4.35829 12.1583 3.33329 9.99999 3.33329C6.31666 3.33329 3.33332 6.31663 3.33332 9.99996C3.33332 11.525 3.84166 12.9166 4.69999 14.0416C5.71666 12.875 7.62499 12.0833 9.99999 12.0833C12.375 12.0833 14.2917 12.875 15.3 14.0416C16.1583 12.9166 16.6667 11.525 16.6667 9.99996H18.3333C18.3333 14.5833 14.5833 18.3333 9.99999 18.3333C5.41666 18.3333 1.66666 14.5833 1.66666 9.99996C1.66666 5.41663 5.41666 1.66663 9.99999 1.66663C12.6167 1.66663 14.9583 2.87496 16.4833 4.76663L17.9167 3.33329V7.49996ZM9.99999 16.6666C11.5833 16.6666 13.0333 16.1166 14.1667 15.2C13.6333 14.3583 12.0417 13.75 9.99999 13.75C7.95832 13.75 6.36666 14.3583 5.83332 15.2C6.96666 16.1166 8.41666 16.6666 9.99999 16.6666ZM9.99999 4.99996C11.6083 4.99996 12.9167 6.30829 12.9167 7.91663C12.9167 9.52496 11.6083 10.8333 9.99999 10.8333C8.39166 10.8333 7.08332 9.52496 7.08332 7.91663C7.08332 6.30829 8.39166 4.99996 9.99999 4.99996ZM9.99999 6.66663C9.30832 6.66663 8.74999 7.22496 8.74999 7.91663C8.74999 8.60829 9.30832 9.16663 9.99999 9.16663C10.6917 9.16663 11.25 8.60829 11.25 7.91663C11.25 7.22496 10.6917 6.66663 9.99999 6.66663Z"
        fill="black" />
    </symbol>
    <symbol id="creermdp" viewBox="0 0 20 20">
      <path
        d="M5.00001 16.6667V8.33337H15V10.9084C15.275 10.8667 15.55 10.8334 15.8333 10.8334C16.1167 10.8334 16.3917 10.8667 16.6667 10.9084V8.33337C16.6667 7.41671 15.925 6.66671 15 6.66671H14.1667V5.00004C14.1667 2.70004 12.3 0.833374 10 0.833374C7.70001 0.833374 5.83334 2.70004 5.83334 5.00004V6.66671H5.00001C4.07501 6.66671 3.33334 7.40837 3.33334 8.33337V16.6667C3.33334 17.5834 4.07501 18.3334 5.00001 18.3334H11.5083C11.2167 17.825 11.0167 17.2667 10.9083 16.6667H5.00001ZM7.50001 5.00004C7.50001 3.61671 8.61668 2.50004 10 2.50004C11.3833 2.50004 12.5 3.61671 12.5 5.00004V6.66671H7.50001V5.00004ZM11.6667 12.5C11.6667 13.425 10.925 14.1667 10 14.1667C9.07501 14.1667 8.33334 13.4167 8.33334 12.5C8.33334 11.575 9.07501 10.8334 10 10.8334C10.925 10.8334 11.6667 11.5834 11.6667 12.5ZM19.1667 15V16.6667H16.6667V19.1667H15V16.6667H12.5V15H15V12.5H16.6667V15H19.1667Z" />
    </symbol>

    <symbol id="sorting" viewBox="0 0 20 20">
      <path
        d="M15.8333 14.1667H18.3333L15 17.5L11.6667 14.1667H14.1667V2.5H15.8333M9.16666 10.8333V12.5L6.39166 15.8333H9.16666V17.5H4.16666V15.8333L6.94166 12.5H4.16666V10.8333M7.49999 2.5H5.83332C4.91666 2.5 4.16666 3.25 4.16666 4.16667V9.16667H5.83332V7.5H7.49999V9.16667H9.16666V4.16667C9.16666 3.25 8.42499 2.5 7.49999 2.5ZM7.49999 5.83333H5.83332V4.16667H7.49999V5.83333Z"
        fill="black" />
      <path
        d="M15.8333 5.83333H18.3333L15 2.5L11.6667 5.83333H14.1667V17.5H15.8333M9.16666 10.8333V12.5L6.39166 15.8333H9.16666V17.5H4.16666V15.8333L6.94166 12.5H4.16666V10.8333M7.49999 2.5H5.83332C4.91666 2.5 4.16666 3.25 4.16666 4.16667V9.16667H5.83332V7.5H7.49999V9.16667H9.16666V4.16667C9.16666 3.25 8.42499 2.5 7.49999 2.5ZM7.49999 5.83333H5.83332V4.16667H7.49999V5.83333Z"
        fill="black" />
    </symbol>
    <symbol id="sort_asc" viewBox="0 0 20 20">
      <path
        d="M15.8333 14.1667H18.3333L15 17.5L11.6667 14.1667H14.1667V2.5H15.8333M9.16666 10.8333V12.5L6.39166 15.8333H9.16666V17.5H4.16666V15.8333L6.94166 12.5H4.16666V10.8333M7.49999 2.5H5.83332C4.91666 2.5 4.16666 3.25 4.16666 4.16667V9.16667H5.83332V7.5H7.49999V9.16667H9.16666V4.16667C9.16666 3.25 8.42499 2.5 7.49999 2.5ZM7.49999 5.83333H5.83332V4.16667H7.49999V5.83333Z"
        fill="black" />
    </symbol>
    <symbol id="sort_desc" viewBox="0 0 20 20">
      <path
        d="M15.8333 5.83333H18.3333L15 2.5L11.6667 5.83333H14.1667V17.5H15.8333M9.16666 10.8333V12.5L6.39166 15.8333H9.16666V17.5H4.16666V15.8333L6.94166 12.5H4.16666V10.8333M7.49999 2.5H5.83332C4.91666 2.5 4.16666 3.25 4.16666 4.16667V9.16667H5.83332V7.5H7.49999V9.16667H9.16666V4.16667C9.16666 3.25 8.42499 2.5 7.49999 2.5ZM7.49999 5.83333H5.83332V4.16667H7.49999V5.83333Z"
        fill="black" />
    </symbol>
    <symbol id="filter" viewBox="0 0 20 20">
      <path
        d="M12.5 16.5667C12.5333 16.8167 12.45 17.0833 12.2583 17.2583C11.9333 17.5833 11.4083 17.5833 11.0833 17.2583L7.74168 13.9167C7.55001 13.725 7.46668 13.4667 7.50001 13.225V8.95833L3.50835 3.85C3.22501 3.49167 3.29168 2.96667 3.65001 2.68333C3.80835 2.56667 3.98335 2.5 4.16668 2.5H15.8333C16.0167 2.5 16.1917 2.56667 16.35 2.68333C16.7083 2.96667 16.775 3.49167 16.4917 3.85L12.5 8.95833V16.5667ZM5.86668 4.16667L9.16668 8.38333V12.9833L10.8333 14.65V8.375L14.1333 4.16667H5.86668Z"
        fill="black" />
    </symbol>
    <symbol id="filter_off" viewBox="0 0 20 20">
      <path
        d="M12.5 14.1667H19.1667V15.8333H12.5V14.1667ZM10.8333 16.5667C10.8667 16.8167 10.7833 17.0833 10.6 17.2583C10.2667 17.5833 9.74166 17.5833 9.41666 17.2583L6.07499 13.9167C5.88333 13.725 5.79999 13.4667 5.83333 13.225V8.95833L1.84166 3.85C1.55833 3.49167 1.62499 2.96667 1.98333 2.68333C2.14166 2.56667 2.31666 2.5 2.49999 2.5H14.1667C14.35 2.5 14.525 2.56667 14.6833 2.68333C15.0417 2.96667 15.1083 3.49167 14.825 3.85L10.8333 8.95833V16.5667ZM4.19999 4.16667L7.49999 8.39167V12.9833L9.16666 14.65V8.375L12.4667 4.16667H4.19999Z"
        fill="black" />
    </symbol>
    <symbol id="homme" viewBox="0 0 20 20">
      <path
        d="M7.5 7.5C8.575 7.5 9.58333 7.84167 10.3917 8.425L14.65 4.16667H10.8333V2.5H17.5V9.16667H15.8333V5.34167L11.575 9.58333C12.1583 10.4167 12.5 11.4167 12.5 12.5C12.5 13.8261 11.9732 15.0979 11.0355 16.0355C10.0979 16.9732 8.82608 17.5 7.5 17.5C6.17392 17.5 4.90215 16.9732 3.96447 16.0355C3.02678 15.0979 2.5 13.8261 2.5 12.5C2.5 11.1739 3.02678 9.90215 3.96447 8.96447C4.90215 8.02678 6.17392 7.5 7.5 7.5ZM7.5 9.16667C6.61594 9.16667 5.7681 9.51786 5.14298 10.143C4.51786 10.7681 4.16667 11.6159 4.16667 12.5C4.16667 13.3841 4.51786 14.2319 5.14298 14.857C5.7681 15.4821 6.61594 15.8333 7.5 15.8333C8.38405 15.8333 9.2319 15.4821 9.85702 14.857C10.4821 14.2319 10.8333 13.3841 10.8333 12.5C10.8333 11.6159 10.4821 10.7681 9.85702 10.143C9.2319 9.51786 8.38405 9.16667 7.5 9.16667Z"
        fill="black" />
    </symbol>
    <symbol id="femme" viewBox="0 0 20 20">
      <path
        d="M10 3.33333C11.3261 3.33333 12.5979 3.86012 13.5355 4.7978C14.4732 5.73548 15 7.00725 15 8.33333C15 10.8083 13.2 12.8667 10.8333 13.2667V15H12.5V16.6667H10.8333V18.3333H9.16667V16.6667H7.5V15H9.16667V13.2667C6.8 12.8667 5 10.8083 5 8.33333C5 7.00725 5.52678 5.73548 6.46447 4.7978C7.40215 3.86012 8.67392 3.33333 10 3.33333ZM10 5C9.11594 5 8.2681 5.35119 7.64298 5.97631C7.01786 6.60143 6.66667 7.44928 6.66667 8.33333C6.66667 9.21739 7.01786 10.0652 7.64298 10.6904C8.2681 11.3155 9.11594 11.6667 10 11.6667C10.8841 11.6667 11.7319 11.3155 12.357 10.6904C12.9821 10.0652 13.3333 9.21739 13.3333 8.33333C13.3333 7.44928 12.9821 6.60143 12.357 5.97631C11.7319 5.35119 10.8841 5 10 5Z"
        fill="black" />
    </symbol>
    <symbol id="pouce_vert" viewBox="0 0 20 20">
      <path
        d="M17.5 7.14286H12.5V2.85714C12.5 1.28143 11.3787 0 10 0H8.125C7.95924 0 7.80027 0.0752549 7.68306 0.209209C7.56585 0.343164 7.5 0.524845 7.5 0.714286V4.09571L5.0825 8.93143C5.02812 9.03913 4.99965 9.16137 5 9.28571V19.2857C5 19.4752 5.06585 19.6568 5.18306 19.7908C5.30027 19.9247 5.45924 20 5.625 20H15.6562C16.1397 19.9998 16.6128 19.8394 17.0182 19.5381C17.4235 19.2369 17.7437 18.8078 17.94 18.3029L19.945 13.1471C19.9812 13.0561 20 12.9572 20 12.8571V10C20 8.42429 18.8787 7.14286 17.5 7.14286ZM0 9.28571V19.2857C0 19.4752 0.065848 19.6568 0.183058 19.7908C0.300269 19.9247 0.45924 20 0.625 20H3.75V8.57143H0.625C0.45924 8.57143 0.300269 8.64668 0.183058 8.78064C0.065848 8.91459 0 9.09627 0 9.28571Z"
        fill="#03A803" />
    </symbol>
    <symbol id="pouce_positif_blanc" viewBox="0 0 20 20">
      <path
        d="M17.5 7.14286H12.5V2.85714C12.5 1.28143 11.3787 0 10 0H8.125C7.95924 0 7.80027 0.0752549 7.68306 0.209209C7.56585 0.343164 7.5 0.524845 7.5 0.714286V4.09571L5.0825 8.93143C5.02812 9.03913 4.99965 9.16137 5 9.28571V19.2857C5 19.4752 5.06585 19.6568 5.18306 19.7908C5.30027 19.9247 5.45924 20 5.625 20H15.6562C16.1397 19.9998 16.6128 19.8394 17.0182 19.5381C17.4235 19.2369 17.7437 18.8078 17.94 18.3029L19.945 13.1471C19.9812 13.0561 20 12.9572 20 12.8571V10C20 8.42429 18.8787 7.14286 17.5 7.14286ZM0 9.28571V19.2857C0 19.4752 0.065848 19.6568 0.183058 19.7908C0.300269 19.9247 0.45924 20 0.625 20H3.75V8.57143H0.625C0.45924 8.57143 0.300269 8.64668 0.183058 8.78064C0.065848 8.91459 0 9.09627 0 9.28571Z"
        fill="#FFFFFF" />
    </symbol>
    <symbol id="pouce_rouge" viewBox="0 0 20 20">
      <path
        d="M17.5 12.8571H12.5V17.1429C12.5 18.7186 11.3787 20 10 20H8.125C7.95924 20 7.80027 19.9247 7.68306 19.7908C7.56585 19.6568 7.5 19.4752 7.5 19.2857V15.9043L5.0825 11.0686C5.02812 10.9609 4.99965 10.8386 5 10.7143V0.714286C5 0.524845 5.06585 0.343164 5.18306 0.209209C5.30027 0.0752549 5.45924 0 5.625 0H15.6562C16.1397 0.000206166 16.6128 0.160637 17.0182 0.461859C17.4235 0.763081 17.7437 1.19217 17.94 1.69714L19.945 6.85286C19.9812 6.94394 20 7.04281 20 7.14286V10C20 11.5757 18.8787 12.8571 17.5 12.8571ZM0 10.7143V0.714286C0 0.524845 0.065848 0.343164 0.183058 0.209209C0.300269 0.0752549 0.45924 0 0.625 0H3.75V11.4286H0.625C0.45924 11.4286 0.300269 11.3533 0.183058 11.2194C0.065848 11.0854 0 10.9037 0 10.7143Z"
        fill="#FF0000" />
    </symbol>
    <symbol id="pouce_negatif_blanc" viewBox="0 0 20 20">
      <path
        d="M17.5 12.8571H12.5V17.1429C12.5 18.7186 11.3787 20 10 20H8.125C7.95924 20 7.80027 19.9247 7.68306 19.7908C7.56585 19.6568 7.5 19.4752 7.5 19.2857V15.9043L5.0825 11.0686C5.02812 10.9609 4.99965 10.8386 5 10.7143V0.714286C5 0.524845 5.06585 0.343164 5.18306 0.209209C5.30027 0.0752549 5.45924 0 5.625 0H15.6562C16.1397 0.000206166 16.6128 0.160637 17.0182 0.461859C17.4235 0.763081 17.7437 1.19217 17.94 1.69714L19.945 6.85286C19.9812 6.94394 20 7.04281 20 7.14286V10C20 11.5757 18.8787 12.8571 17.5 12.8571ZM0 10.7143V0.714286C0 0.524845 0.065848 0.343164 0.183058 0.209209C0.300269 0.0752549 0.45924 0 0.625 0H3.75V11.4286H0.625C0.45924 11.4286 0.300269 11.3533 0.183058 11.2194C0.065848 11.0854 0 10.9037 0 10.7143Z"
        fill="#FFFFFF" />
    </symbol>
    <symbol id="pouce_outline_vert" viewBox="0 0 20 20">
      <path
        d="M1.54025 19.9971C1.13292 19.9933 0.743353 19.8298 0.455317 19.5418C0.167282 19.2537 0.00378933 18.8642 0 18.4568V7.69253C0 6.85266 0.703284 6.15228 1.54025 6.15228H3.85063C4.42023 6.15228 4.92008 6.48067 5.18745 6.95147C5.70474 6.63179 6.21331 6.4458 6.5417 6.2569C7.31473 5.80936 7.70997 4.55391 7.89305 3.24324C7.98314 2.58936 8.03255 1.95873 8.11392 1.43272C8.15461 1.17117 8.19239 0.938681 8.29991 0.682941C8.36856 0.488974 8.49394 0.32013 8.65978 0.198341C8.82562 0.0765524 9.02425 0.00744654 9.22987 0C10.372 0 11.3078 0.447544 11.9035 1.13339C12.5022 1.81633 12.7812 2.67364 12.9323 3.52223C13.1764 4.91136 13.0834 6.08835 13.0369 6.92822H17.6867C18.9538 6.92822 20 7.96861 20 9.23278C20 9.68033 19.8721 10.0174 19.7094 10.5405C19.5466 11.0666 19.3287 11.7001 19.0846 12.3772C18.6022 13.7315 18.0267 15.2659 17.6489 16.3964C17.5068 16.8827 17.2698 17.3361 16.9515 17.7303C16.7569 17.9558 16.5166 18.1375 16.2466 18.2632C15.9766 18.389 15.6829 18.456 15.3851 18.4598H6.15519C5.89311 18.4573 5.63346 18.4092 5.38797 18.3174V18.4627C5.38797 19.2996 4.6905 20 3.85063 20L1.54025 19.9971ZM1.54025 18.4568H3.85063V7.69253H1.54025V18.4568ZM6.15519 16.9195H15.3851C15.5885 16.9195 15.6524 16.8788 15.7861 16.7219C15.9682 16.4743 16.1058 16.197 16.193 15.9024C16.5853 14.7254 17.1607 13.1938 17.6373 11.857C17.8756 11.1886 18.0907 10.5696 18.2389 10.0843C18.39 9.60186 18.4627 9.16594 18.4627 9.22988C18.4647 9.12808 18.446 9.02694 18.4078 8.93256C18.3696 8.83819 18.3126 8.75255 18.2403 8.68083C18.1681 8.60911 18.082 8.55279 17.9873 8.51529C17.8927 8.47779 17.7914 8.45988 17.6896 8.46266H12.2406C12.139 8.46304 12.0383 8.44331 11.9443 8.4046C11.8504 8.36588 11.765 8.30896 11.6932 8.2371C11.6213 8.16524 11.5644 8.07987 11.5257 7.98591C11.4869 7.89194 11.4672 7.79125 11.4676 7.68962C11.4676 6.78291 11.6652 5.16129 11.424 3.78378C11.3019 3.09794 11.0753 2.51962 10.7469 2.14473C10.4629 1.82521 10.0725 1.61971 9.64836 1.56641C9.56989 2.00523 9.51758 2.75501 9.41877 3.45539C9.21825 4.88811 8.84045 6.70154 7.30892 7.58791C6.73641 7.9163 6.18425 8.11101 5.85586 8.33769C5.52456 8.56437 5.39087 8.68643 5.39087 9.22988V16.1465C5.39087 16.5882 5.71636 16.9195 6.15519 16.9195Z"
        fill="#03A803" />
    </symbol>
    <symbol id="pouce_outline_rouge" viewBox="0 0 20 20">
      <path
        d="M1.54025 0.0029068C1.13292 0.0066967 0.743353 0.170189 0.455317 0.458223C0.167282 0.74626 0.00378933 1.13583 0 1.54316V12.3075C0 13.1473 0.703284 13.8477 1.54025 13.8477H3.85063C4.42023 13.8477 4.92008 13.5193 5.18745 13.0485C5.70474 13.3682 6.21331 13.5542 6.5417 13.7431C7.31473 14.1906 7.70997 15.4461 7.89305 16.7568C7.98314 17.4106 8.03255 18.0413 8.11392 18.5673C8.15461 18.8288 8.19239 19.0613 8.29991 19.3171C8.36856 19.511 8.49394 19.6799 8.65978 19.8017C8.82562 19.9234 9.02425 19.9926 9.22987 20C10.372 20 11.3078 19.5525 11.9035 18.8666C12.5022 18.1837 12.7812 17.3264 12.9323 16.4778C13.1764 15.0886 13.0834 13.9117 13.0369 13.0718H17.6867C18.9538 13.0718 20 12.0314 20 10.7672C20 10.3197 19.8721 9.98256 19.7094 9.45946C19.5466 8.93345 19.3287 8.29991 19.0846 7.62278C18.6022 6.26853 18.0267 4.73409 17.6489 3.6036C17.5068 3.11727 17.2698 2.6639 16.9515 2.26969C16.7569 2.04415 16.5166 1.8625 16.2466 1.73675C15.9766 1.611 15.6829 1.54403 15.3851 1.54025H6.15519C5.89311 1.54266 5.63346 1.59085 5.38797 1.68265V1.53734C5.38797 0.700378 4.6905 0 3.85063 0L1.54025 0.0029068ZM1.54025 1.54316H3.85063V12.3075H1.54025V1.54316ZM6.15519 3.0805H15.3851C15.5885 3.0805 15.6524 3.12119 15.7861 3.27812C15.9682 3.52567 16.1058 3.80297 16.193 4.09765C16.5853 5.27463 17.1607 6.80616 17.6373 8.14298C17.8756 8.81139 18.0907 9.4304 18.2389 9.91572C18.39 10.3981 18.4627 10.8341 18.4627 10.7701C18.4647 10.8719 18.446 10.9731 18.4078 11.0674C18.3696 11.1618 18.3126 11.2474 18.2403 11.3192C18.1681 11.3909 18.082 11.4472 17.9873 11.4847C17.8927 11.5222 17.7914 11.5401 17.6896 11.5373H12.2406C12.139 11.537 12.0383 11.5567 11.9443 11.5954C11.8504 11.6341 11.765 11.691 11.6932 11.7629C11.6213 11.8348 11.5644 11.9201 11.5257 12.0141C11.4869 12.1081 11.4672 12.2088 11.4676 12.3104C11.4676 13.2171 11.6652 14.8387 11.424 16.2162C11.3019 16.9021 11.0753 17.4804 10.7469 17.8553C10.4629 18.1748 10.0725 18.3803 9.64836 18.4336C9.56989 17.9948 9.51758 17.245 9.41877 16.5446C9.21825 15.1119 8.84045 13.2985 7.30892 12.4121C6.73641 12.0837 6.18425 11.889 5.85586 11.6623C5.52456 11.4356 5.39087 11.3136 5.39087 10.7701V3.85353C5.39087 3.4118 5.71636 3.0805 6.15519 3.0805Z"
        fill="#FF0000" />
    </symbol>
    <symbol id="convoqué" viewBox="0 0 20 20">
      <path
        d="M15.8333 2.49998H12.35C12 1.53331 11.0833 0.833313 10 0.833313C8.91667 0.833313 8 1.53331 7.65 2.49998H4.16667C3.72464 2.49998 3.30072 2.67557 2.98816 2.98813C2.67559 3.3007 2.5 3.72462 2.5 4.16665V15.8333C2.5 16.2753 2.67559 16.6993 2.98816 17.0118C3.30072 17.3244 3.72464 17.5 4.16667 17.5H15.8333C16.2754 17.5 16.6993 17.3244 17.0118 17.0118C17.3244 16.6993 17.5 16.2753 17.5 15.8333V4.16665C17.5 3.72462 17.3244 3.3007 17.0118 2.98813C16.6993 2.67557 16.2754 2.49998 15.8333 2.49998ZM10 2.49998C10.221 2.49998 10.433 2.58778 10.5893 2.74406C10.7455 2.90034 10.8333 3.1123 10.8333 3.33331C10.8333 3.55433 10.7455 3.76629 10.5893 3.92257C10.433 4.07885 10.221 4.16665 10 4.16665C9.77899 4.16665 9.56702 4.07885 9.41074 3.92257C9.25446 3.76629 9.16667 3.55433 9.16667 3.33331C9.16667 3.1123 9.25446 2.90034 9.41074 2.74406C9.56702 2.58778 9.77899 2.49998 10 2.49998ZM5.83333 5.83331H14.1667V4.16665H15.8333V15.8333H4.16667V4.16665H5.83333V5.83331ZM6.25 11.25L7.5 9.99998L9.16667 11.6666L12.9167 7.91665L14.1667 9.16665L9.16667 14.1666L6.25 11.25Z"
      />
    </symbol>
    <symbol id="croix" viewBox="0 0 20 20">
      <path
        d="M10 0C12.6522 0 15.1957 1.05357 17.0711 2.92893C18.9464 4.8043 20 7.34784 20 10C20 12.6522 18.9464 15.1957 17.0711 17.0711C15.1957 18.9464 12.6522 20 10 20C7.34784 20 4.8043 18.9464 2.92893 17.0711C1.05357 15.1957 0 12.6522 0 10C0 7.34784 1.05357 4.8043 2.92893 2.92893C4.8043 1.05357 7.34784 0 10 0ZM10 1.66667C8.90565 1.66667 7.82202 1.88221 6.81097 2.301C5.79992 2.71979 4.88126 3.33362 4.10744 4.10744C2.54464 5.67025 1.66667 7.78986 1.66667 10C1.66667 12 2.375 13.8333 3.55 15.275L15.275 3.55C13.8333 2.375 12 1.66667 10 1.66667ZM10 18.3333C12.2101 18.3333 14.3298 17.4554 15.8926 15.8926C17.4554 14.3298 18.3333 12.2101 18.3333 10C18.3333 8 17.625 6.16667 16.45 4.725L4.725 16.45C6.16667 17.625 8 18.3333 10 18.3333Z"
      />

    </symbol>
    <symbol id="save" viewBox="0 0 20 20">
      <path
        d="M14.1667 2.5H4.16667C3.24167 2.5 2.5 3.25 2.5 4.16667V15.8333C2.5 16.75 3.24167 17.5 4.16667 17.5H15.8333C16.75 17.5 17.5 16.75 17.5 15.8333V5.83333L14.1667 2.5ZM15.8333 15.8333H4.16667V4.16667H13.475L15.8333 6.525V15.8333ZM10 10C8.61667 10 7.5 11.1167 7.5 12.5C7.5 13.8833 8.61667 15 10 15C11.3833 15 12.5 13.8833 12.5 12.5C12.5 11.1167 11.3833 10 10 10ZM5 5H12.5V8.33333H5V5Z"
      />
    </symbol>
    <symbol id="annuler" viewBox="0 0 20 20">
      <path
        d="M16.6667 1.66663H6.66666C5.74999 1.66663 4.99999 2.41663 4.99999 3.33329V13.3333C4.99999 14.2583 5.74999 15 6.66666 15H16.6667C17.5917 15 18.3333 14.2583 18.3333 13.3333V3.33329C18.3333 2.41663 17.5917 1.66663 16.6667 1.66663ZM16.6667 13.3333H6.66666V3.33329H16.6667V13.3333ZM3.33332 4.99996V16.6666H15V18.3333H3.33332C2.41666 18.3333 1.66666 17.5916 1.66666 16.6666V4.99996H3.33332ZM8.14166 10.7L10.5 8.33329L8.14166 5.95829L9.30832 4.79163L11.6667 7.16663L14.0333 4.80829L15.2 5.97496L12.8333 8.33329L15.1917 10.7L14.025 11.8666L11.6667 9.49996L9.30832 11.8666L8.14166 10.7Z" />
    </symbol>
    <symbol id="terminer" viewBox="0 0 20 20">
      <path
        d="M16.6667 1.66663H6.66666C6.22463 1.66663 5.80071 1.84222 5.48815 2.15478C5.17558 2.46734 4.99999 2.89127 4.99999 3.33329V13.3333C4.99999 13.7753 5.17558 14.1992 5.48815 14.5118C5.80071 14.8244 6.22463 15 6.66666 15H16.6667C17.1087 15 17.5326 14.8244 17.8452 14.5118C18.1577 14.1992 18.3333 13.7753 18.3333 13.3333V3.33329C18.3333 2.89127 18.1577 2.46734 17.8452 2.15478C17.5326 1.84222 17.1087 1.66663 16.6667 1.66663ZM16.6667 13.3333H6.66666V3.33329H16.6667V13.3333ZM13.3333 16.6666V18.3333H3.33332C2.8913 18.3333 2.46737 18.1577 2.15481 17.8451C1.84225 17.5326 1.66666 17.1087 1.66666 16.6666V5.83329H3.33332V16.6666H13.3333ZM15.4417 6.71663L14.5583 5.83329L10.4917 9.89996L8.72499 8.13329L7.84166 9.01663L10.4917 11.6666L15.4417 6.71663Z" />
    </symbol>
    <symbol id="retour" viewBox="0 0 20 20">
      <path
        d="M15.8333 12.9917L14.6583 14.1667L11.6667 11.175L8.675 14.1667L7.5 12.9917L10.4917 10L7.5 7.00833L8.675 5.83333L11.6667 8.825L14.6583 5.83333L15.8333 7.00833L12.8417 10L15.8333 12.9917ZM18.3333 2.5C18.7754 2.5 19.1993 2.67559 19.5118 2.98816C19.8244 3.30072 20 3.72464 20 4.16667V15.8333C20 16.2754 19.8244 16.6993 19.5118 17.0118C19.1993 17.3244 18.7754 17.5 18.3333 17.5H5.83333C5.25833 17.5 4.80833 17.2 4.50833 16.7583L0 10L4.50833 3.23333C4.80833 2.79167 5.25833 2.5 5.83333 2.5H18.3333ZM18.3333 4.16667H5.83333L1.9 10L5.83333 15.8333H18.3333V4.16667Z"
      />
    </symbol>
    <symbol id="envoyer" viewBox="0 0 20 20">
      <path
        d="M1.67499 17.5L19.1667 10L1.67499 2.5L1.66666 8.33333L14.1667 10L1.66666 11.6667L1.67499 17.5Z" />

    </symbol>
    <symbol id="login" viewBox="0 0 20 20">
      <path
        d="M9.16666 5.83333L7.99999 7L10.1667 9.16667H1.66666V10.8333H10.1667L7.99999 13L9.16666 14.1667L13.3333 10L9.16666 5.83333ZM16.6667 15.8333H9.99999V17.5H16.6667C17.5833 17.5 18.3333 16.75 18.3333 15.8333V4.16667C18.3333 3.25 17.5833 2.5 16.6667 2.5H9.99999V4.16667H16.6667V15.8333Z"
      />
    </symbol>
    <symbol id="logout" viewBox="0 0 20 20">
      <path
        d="M14.1667 6.66667L13 7.83333L14.3333 9.16667H7.5V10.8333H14.3333L13 12.1667L14.1667 13.3333L17.5 10L14.1667 6.66667ZM4.16667 4.16667H10V2.5H4.16667C3.25 2.5 2.5 3.25 2.5 4.16667V15.8333C2.5 16.75 3.25 17.5 4.16667 17.5H10V15.8333H4.16667V4.16667Z"
      />
    </symbol>
    <symbol id="finish" viewBox="0 0 20 20">
      <path
        d="M12 5.00004H16.6667V13.3334H10.8333L10.5 11.6667H5.83332V17.5H4.16666V3.33337H11.6667L12 5.00004ZM11.6667 11.6667H13.3333V10H15V8.33337H13.3333V6.66671H11.6667V8.33337L10.8333 6.66671V5.00004H9.16666V6.66671H7.49999V5.00004H5.83332V6.66671H7.49999V8.33337H5.83332V10H7.49999V8.33337H9.16666V10H10.8333V8.33337L11.6667 10V11.6667ZM9.16666 8.33337V6.66671H10.8333V8.33337H9.16666ZM11.6667 8.33337H13.3333V10H11.6667V8.33337Z"
      />
    </symbol>
    <symbol id="refresh" viewBox="0 0 20 20">
      <path
        d="M15.3972 0.00312185H10.1361V1.84553H15.3972C17.2097 1.84553 18.6854 3.91272 18.6854 6.45156C18.6854 8.99041 17.2097 11.0576 15.3972 11.0576H2.51679L6.65463 5.26137L5.72605 3.95694L-0.00063026 11.9788L5.72605 20.0007L6.65595 18.6981L2.51679 12.9H15.3972C17.9357 12.9 20.0007 10.0074 20.0007 6.45156C20.0007 2.89571 17.9357 0.00312185 15.3972 0.00312185Z"
      />
    </symbol>
    <symbol id="delete" viewBox="0 0 20 20">
      <path
        d="M14.7498 7.46597L14.4277 17.2159C14.4002 18.0509 14.0485 18.8424 13.4471 19.4223C12.8456 20.0022 12.0419 20.325 11.2064 20.322H5.08603C4.2511 20.325 3.44783 20.0027 2.84649 19.4235C2.24516 18.8442 1.89304 18.0536 1.86478 17.2191L1.54265 7.46597C1.5356 7.25239 1.61369 7.04475 1.75973 6.88874C1.90577 6.73273 2.10781 6.64113 2.32139 6.63408C2.53497 6.62703 2.74261 6.70512 2.89862 6.85116C3.05463 6.9972 3.14623 7.19924 3.15328 7.41282L3.47541 17.1652C3.49145 17.5815 3.66819 17.9754 3.96852 18.2642C4.26885 18.5529 4.6694 18.7141 5.08603 18.7138H11.2064C11.6236 18.7141 12.0246 18.5525 12.325 18.263C12.6254 17.9736 12.8018 17.5788 12.817 17.162L13.1392 7.41282C13.1462 7.19924 13.2378 6.9972 13.3938 6.85116C13.5498 6.70512 13.7575 6.62703 13.9711 6.63408C14.1846 6.64113 14.3867 6.73273 14.5327 6.88874C14.6788 7.04475 14.7568 7.25239 14.7498 7.46597ZM15.8152 4.22136C15.8152 4.43494 15.7304 4.63978 15.5794 4.7908C15.4283 4.94183 15.2235 5.02667 15.0099 5.02667H1.28334C1.06976 5.02667 0.864924 4.94183 0.713898 4.7908C0.562872 4.63978 0.478027 4.43494 0.478027 4.22136C0.478027 4.00778 0.562872 3.80294 0.713898 3.65192C0.864924 3.50089 1.06976 3.41605 1.28334 3.41605H3.77981C4.03498 3.41673 4.28127 3.32246 4.47076 3.15158C4.66025 2.98069 4.77938 2.74542 4.80498 2.49155C4.86441 1.896 5.14342 1.34392 5.58766 0.942852C6.0319 0.541787 6.60954 0.320473 7.20804 0.32203H9.08442C9.68291 0.320473 10.2606 0.541787 10.7048 0.942852C11.149 1.34392 11.428 1.896 11.4875 2.49155C11.5131 2.74542 11.6322 2.98069 11.8217 3.15158C12.0112 3.32246 12.2575 3.41673 12.5126 3.41605H15.0091C15.2227 3.41605 15.4275 3.50089 15.5786 3.65192C15.7296 3.80294 15.8144 4.00778 15.8144 4.22136H15.8152ZM6.203 3.41605H10.0911C9.98524 3.17424 9.91602 2.91803 9.8857 2.65583C9.86575 2.45733 9.77283 2.27329 9.62494 2.13939C9.47705 2.00549 9.28473 1.93124 9.08522 1.93105H7.20884C7.00934 1.93124 6.81701 2.00549 6.66912 2.13939C6.52123 2.27329 6.42831 2.45733 6.40836 2.65583C6.37778 2.91807 6.3091 3.17429 6.203 3.41605ZM7.01395 15.6174V8.76011C7.01395 8.54653 6.92911 8.34169 6.77808 8.19067C6.62706 8.03964 6.42222 7.9548 6.20864 7.9548C5.99506 7.9548 5.79022 8.03964 5.6392 8.19067C5.48817 8.34169 5.40333 8.54653 5.40333 8.76011V15.6206C5.40333 15.8342 5.48817 16.039 5.6392 16.19C5.79022 16.341 5.99506 16.4259 6.20864 16.4259C6.42222 16.4259 6.62706 16.341 6.77808 16.19C6.92911 16.039 7.01395 15.8342 7.01395 15.6206V15.6174ZM10.8907 15.6174V8.76011C10.8907 8.54653 10.8059 8.34169 10.6549 8.19067C10.5038 8.03964 10.299 7.9548 10.0854 7.9548C9.87184 7.9548 9.66701 8.03964 9.51598 8.19067C9.36495 8.34169 9.28011 8.54653 9.28011 8.76011V15.6206C9.28011 15.8342 9.36495 16.039 9.51598 16.19C9.66701 16.341 9.87184 16.4259 10.0854 16.4259C10.299 16.4259 10.5038 16.341 10.6549 16.19C10.8059 16.039 10.8907 15.8342 10.8907 15.6206V15.6174Z"
      />
    </symbol>
    <symbol id="edit" viewBox="0 0 20 20">
      <path
        d="M2.7147 20.3221H12.3005C12.8946 20.3199 13.4638 20.0104 13.8831 19.4616C14.3024 18.9127 14.5376 18.1694 14.5371 17.3946V11.1138C14.5371 10.8928 14.4698 10.6808 14.35 10.5245C14.2301 10.3682 14.0676 10.2804 13.8981 10.2804C13.7286 10.2804 13.5661 10.3682 13.4462 10.5245C13.3264 10.6808 13.259 10.8928 13.259 11.1138V17.3946C13.2599 17.7275 13.1594 18.0472 12.9797 18.2835C12.8 18.5199 12.5557 18.6537 12.3005 18.6554H2.7147C2.45945 18.6537 2.21516 18.5199 2.03545 18.2835C1.85573 18.0472 1.75528 17.7275 1.75613 17.3946V4.91627C1.75528 4.58341 1.85573 4.26371 2.03545 4.02733C2.21516 3.79095 2.45945 3.6572 2.7147 3.65544H7.50758C7.67707 3.65544 7.83961 3.56764 7.95946 3.41136C8.0793 3.25508 8.14663 3.04312 8.14663 2.8221C8.14663 2.60109 8.0793 2.38913 7.95946 2.23285C7.83961 2.07657 7.67707 1.98877 7.50758 1.98877H2.7147C2.12058 1.99098 1.5514 2.30046 1.13207 2.84931C0.712739 3.39815 0.477518 4.14152 0.478028 4.91627V17.3946C0.477518 18.1694 0.712739 18.9127 1.13207 19.4616C1.5514 20.0104 2.12058 20.3199 2.7147 20.3221Z"
      />
      <path
        d="M6.52026 9.10869L6.01605 12.1204C5.99323 12.257 5.99713 12.3989 6.02739 12.533C6.05766 12.6671 6.11331 12.7891 6.18923 12.8879C6.2662 12.9841 6.35982 13.0547 6.46217 13.0937C6.56451 13.1328 6.67256 13.139 6.77716 13.112L9.08157 12.4529C9.20123 12.4186 9.31081 12.3402 9.39726 12.227L15.2216 4.63202C15.3996 4.39987 15.5409 4.12425 15.6372 3.82091C15.7336 3.51757 15.7832 3.19244 15.7832 2.8641C15.7832 2.53576 15.7336 2.21064 15.6372 1.9073C15.5409 1.60395 15.3996 1.32834 15.2216 1.09619C14.8565 0.6413 14.3711 0.387451 13.8661 0.387451C13.3612 0.387451 12.8758 0.6413 12.5107 1.09619L6.69536 8.69869C6.60808 8.81066 6.5473 8.95297 6.52026 9.10869ZM13.4143 2.27535C13.5359 2.12347 13.6978 2.03868 13.8661 2.03868C14.0345 2.03868 14.1964 2.12347 14.318 2.27535C14.4362 2.43254 14.5024 2.64393 14.5024 2.8641C14.5024 3.08427 14.4362 3.29566 14.318 3.45285L13.8661 4.04202L12.9625 2.86369L13.4143 2.27535ZM7.72679 9.70369L12.0557 4.04452L12.9504 5.21702L8.61954 10.8779L7.47245 11.2062L7.72679 9.70369Z"
      />
    </symbol>
    <symbol id="checked" viewBox="0 0 20 20">
      <path
        d="M9.99999 1.66669C5.41666 1.66669 1.66666 5.41669 1.66666 10C1.66666 14.5834 5.41666 18.3334 9.99999 18.3334C14.5833 18.3334 18.3333 14.5834 18.3333 10C18.3333 5.41669 14.5833 1.66669 9.99999 1.66669ZM9.99999 16.6667C6.32499 16.6667 3.33332 13.675 3.33332 10C3.33332 6.32502 6.32499 3.33335 9.99999 3.33335C13.675 3.33335 16.6667 6.32502 16.6667 10C16.6667 13.675 13.675 16.6667 9.99999 16.6667ZM13.825 6.31669L8.33332 11.8084L6.17499 9.65835L4.99999 10.8334L8.33332 14.1667L15 7.50002L13.825 6.31669Z"
      />
    </symbol>
    <symbol id="doublemenu" width="11" height="12" viewBox="0 0 11 12" fill="none"
      xmlns="http://www.w3.org/2000/svg">
      <path d="M0.895485 6.05953L5.89548 11.0595L10.8955 6.05953H0.895485Z" fill="black" />
      <path d="M0.895485 6.05953L5.89548 11.0595L10.8955 6.05953H0.895485Z" fill="black" />
      <path d="M11 5L6 0L1 5L11 5Z" fill="black" />
    </symbol>
    <symbol id="menuhaut" width="10" height="5" viewBox="0 0 10 5" fill="none"
      xmlns="http://www.w3.org/2000/svg">
      <path d="M10 5L5 0L0 5L10 5Z" fill="black" />
    </symbol>
    <symbol id="menubas" width="10" height="5" viewBox="0 0 10 5" fill="none"
      xmlns="http://www.w3.org/2000/svg">
      <path d="M0 0L5 5L10 0L0 0Z" fill="black" />
    </symbol>
    <symbol id="termine" width="18" height="18" viewBox="0 0 18 18" fill="none"
      xmlns="http://www.w3.org/2000/svg">
      <path
        d="M8.99999 0.666687C4.41666 0.666687 0.666656 4.41669 0.666656 9.00002C0.666656 13.5834 4.41666 17.3334 8.99999 17.3334C13.5833 17.3334 17.3333 13.5834 17.3333 9.00002C17.3333 4.41669 13.5833 0.666687 8.99999 0.666687ZM8.99999 15.6667C5.32499 15.6667 2.33332 12.675 2.33332 9.00002C2.33332 5.32502 5.32499 2.33335 8.99999 2.33335C12.675 2.33335 15.6667 5.32502 15.6667 9.00002C15.6667 12.675 12.675 15.6667 8.99999 15.6667ZM12.825 5.31669L7.33332 10.8084L5.17499 8.65835L3.99999 9.83335L7.33332 13.1667L14 6.50002L12.825 5.31669Z"
        fill="black" />
    </symbol>
    <symbol id="prevu" width="17" height="20" viewBox="0 0 17 20" fill="none"
      xmlns="http://www.w3.org/2000/svg">
      <path
        d="M10.9167 9.99998C13 9.99998 14.6667 11.6666 14.6667 13.75C14.6667 14.4833 14.4583 15.175 14.0917 15.75L16.6583 18.3333L15.5 19.4916L12.9 16.9333C12.325 17.2916 11.6417 17.5 10.9167 17.5C8.83333 17.5 7.16667 15.8333 7.16667 13.75C7.16667 11.6666 8.83333 9.99998 10.9167 9.99998ZM10.9167 11.6666C10.3641 11.6666 9.83423 11.8861 9.44353 12.2768C9.05283 12.6675 8.83333 13.1974 8.83333 13.75C8.83333 14.3025 9.05283 14.8324 9.44353 15.2231C9.83423 15.6138 10.3641 15.8333 10.9167 15.8333C11.4692 15.8333 11.9991 15.6138 12.3898 15.2231C12.7805 14.8324 13 14.3025 13 13.75C13 13.1974 12.7805 12.6675 12.3898 12.2768C11.9991 11.8861 11.4692 11.6666 10.9167 11.6666ZM13.8333 6.66665H2.16667V15.8333H5.91667C6.175 16.4583 6.55 17.0166 7.00833 17.5H2.16667C1.24167 17.5 0.5 16.75 0.5 15.8333V4.16665C0.5 3.24165 1.24167 2.49998 2.16667 2.49998H3V0.833313H4.66667V2.49998H11.3333V0.833313H13V2.49998H13.8333C14.2754 2.49998 14.6993 2.67557 15.0118 2.98813C15.3244 3.3007 15.5 3.72462 15.5 4.16665V10.8583C15.0833 10.1833 14.5 9.61665 13.8333 9.16665V6.66665Z"
        fill="black" />
    </symbol>
    <symbol id="rounded_add" width="20" height="20" viewBox="0 0 20 20"
      xmlns="http://www.w3.org/2000/svg">
      <path
        d="M11 5H9V9H5V11H9V15H11V11H15V9H11V5ZM10 0C4.48 0 0 4.48 0 10C0 15.52 4.48 20 10 20C15.52 20 20 15.52 20 10C20 4.48 15.52 0 10 0ZM10 18C5.59 18 2 14.41 2 10C2 5.59 5.59 2 10 2C14.41 2 18 5.59 18 10C18 14.41 14.41 18 10 18Z"
      />
    </symbol>
    <symbol id="rounded_remove" width="20" height="20" viewBox="0 0 20 20"
      xmlns="http://www.w3.org/2000/svg">
      <path
        d="M5 9V11H15V9H5ZM10 0C4.48 0 0 4.48 0 10C0 15.52 4.48 20 10 20C15.52 20 20 15.52 20 10C20 4.48 15.52 0 10 0ZM10 18C5.59 18 2 14.41 2 10C2 5.59 5.59 2 10 2C14.41 2 18 5.59 18 10C18 14.41 14.41 18 10 18Z"
      />
    </symbol>
    <symbol id="rounded_check" width="20" height="20" viewBox="0 0 20 20"
      xmlns="http://www.w3.org/2000/svg">
      <path
        d="M14.59 5.58L8 12.17L4.41 8.59L3 10L8 15L16 7L14.59 5.58ZM10 0C4.48 0 0 4.48 0 10C0 15.52 4.48 20 10 20C15.52 20 20 15.52 20 10C20 4.48 15.52 0 10 0ZM10 18C5.58 18 2 14.42 2 10C2 5.58 5.58 2 10 2C14.42 2 18 5.58 18 10C18 14.42 14.42 18 10 18Z"
        fill="black" />
    </symbol>
    <symbol id="rounded_no" width="20" height="20" viewBox="0 0 20 20"
      xmlns="http://www.w3.org/2000/svg">
      <path
        d="M8.99999 15.6667C5.32499 15.6667 2.33332 12.675 2.33332 9.00002C2.33332 5.32502 5.32499 2.33335 8.99999 2.33335C12.675 2.33335 15.6667 5.32502 15.6667 9.00002C15.6667 12.675 12.675 15.6667 8.99999 15.6667ZM8.99999 0.666687C4.39166 0.666687 0.666656 4.39169 0.666656 9.00002C0.666656 13.6084 4.39166 17.3334 8.99999 17.3334C13.6083 17.3334 17.3333 13.6084 17.3333 9.00002C17.3333 4.39169 13.6083 0.666687 8.99999 0.666687ZM11.1583 5.66669L8.99999 7.82502L6.84166 5.66669L5.66666 6.84169L7.82499 9.00002L5.66666 11.1584L6.84166 12.3334L8.99999 10.175L11.1583 12.3334L12.3333 11.1584L10.175 9.00002L12.3333 6.84169L11.1583 5.66669Z"
        fill="black" />
    </symbol>
    <symbol id="rounded_convoque" width="20" height="20" viewBox="0 0 20 20"
      xmlns="http://www.w3.org/2000/svg">
      <path
        d="M8.99999 0.5C4.41666 0.5 0.666656 3.48333 0.666656 7.16667C0.708323 8.95833 1.54999 10.6417 2.95832 11.75C2.95832 12.25 2.60832 13.5583 0.666656 15.5C2.64166 15.4083 4.53332 14.6667 6.05832 13.4167C7.00832 13.6917 8.00832 13.8333 8.99999 13.8333C13.5833 13.8333 17.3333 10.85 17.3333 7.16667C17.3333 3.48333 13.5833 0.5 8.99999 0.5ZM8.99999 12.1667C5.31666 12.1667 2.33332 9.925 2.33332 7.16667C2.33332 4.40833 5.31666 2.16667 8.99999 2.16667C12.6833 2.16667 15.6667 4.40833 15.6667 7.16667C15.6667 9.925 12.6833 12.1667 8.99999 12.1667ZM13.1667 8V6.33333H11.5V8H13.1667ZM9.83332 8V6.33333H8.16666V8H9.83332ZM6.49999 8V6.33333H4.83332V8H6.49999Z"
        fill="black" />
    </symbol>
    <symbol id="enveloppe" width="20" height="20" viewBox="0 0 20 20"
    xmlns="http://www.w3.org/2000/svg">
      <path d="M17.3333 2.00001C17.3333 1.08334 16.5833 0.333344 15.6667 0.333344H2.33332C1.41666 0.333344 0.666656 1.08334 0.666656 2.00001V12C0.666656 12.9167 1.41666 13.6667 2.33332 13.6667H15.6667C16.5833 13.6667 17.3333 12.9167 17.3333 12V2.00001ZM15.6667 2.00001L8.99999 6.16668L2.33332 2.00001H15.6667ZM15.6667 12H2.33332V3.66668L8.99999 7.83334L15.6667 3.66668V12Z" fill="black"/>
      </symbol>
      


  </defs>
</svg>